<svg version="1.1" xmlns="http://www.w3.org/2000/svg" xmlns:xlink="http://www.w3.org/1999/xlink" width="1560" height="804"><defs/><g><path fill="none" stroke="#02063B" paint-order="fill stroke markers" d=" M 20 414.6515132384485 L 21 415.28071078439103 L 22 415.9094145517183 L 23 416.5376011651396 L 24 417.16524726859205 L 25 417.792329526109 L 26 418.4188246226876 L 27 419.0447092651559 L 28 419.6699601830386 L 29 420.29455412942235 L 30 420.91846788182016 L 31 421.5416782430347 L 32 422.1641620420208 L 33 422.78589613474696 L 34 423.4068574050559 L 35 424.02702276552407 L 36 424.64636915831977 L 37 425.2648735560607 L 38 425.8825129626702 L 39 426.4992644142318 L 40 427.1151049798436 L 41 427.7300117624704 L 42 428.3439618997952 L 43 428.9569325650693 L 44 429.5689009679607 L 45 430.1798443554019 L 46 430.78974001243546 L 47 431.3985652630587 L 48 432.0062974710668 L 49 432.61291404089445 L 50 433.21839241845595 L 51 433.82271009198365 L 52 434.4258445928651 L 53 435.0277734964783 L 54 435.6284744230256 L 55 436.2279250383656 L 56 436.82610305484377 L 57 437.42298623212093 L 58 438.0185523780001 L 59 438.61277934925187 L 60 439.2056450524373 L 61 439.7971274447299 L 62 440.3872045347345 L 63 440.97585438330555 L 64 441.5630551043624 L 65 442.1487848657031 L 66 442.7330218898163 L 67 443.3157444546908 L 68 443.89693089462315 L 69 444.47655960102327 L 70 445.0546090232178 L 71 445.63105766925133 L 72 446.2058841066857 L 73 446.7790669633964 L 74 447.3505849283678 L 75 447.9204167524849 L 76 448.4885412493238 L 77 449.05493729593917 L 78 449.61958383364976 L 79 450.1824598688213 L 80 450.7435444736469 L 81 451.30281678692546 L 82 451.8602560148371 L 83 452.4158414317162 L 84 452.9695523808223 L 85 453.5213682751075 L 86 454.0712685979827 L 87 454.61923290407987 L 88 455.1652408200123 L 89 455.7092720451321 L 90 456.2513063522851 L 91 456.79132358856276 L 92 457.3293036760516 L 93 457.8652266125794 L 94 458.3990724724593 L 95 458.9308214072303 L 96 459.4604536463955 L 97 459.98794949815675 L 98 460.51328935014743 L 99 461.036453670161 L 100 461.5574230068777 L 101 462.07617799058727 L 102 462.5926993339097 L 103 463.1069678325118 L 104 463.61896436582174 L 105 464.1286698977392 L 106 464.63606547734406 L 107 465.14113223960027 L 108 465.64385140605765 L 109 466.1442042855498 L 110 466.6421722748894 L 111 467.1377368595595 L 112 467.6308796144021 L 113 468.12158220430314 L 114 468.60982638487434 L 115 469.0955940031313 L 116 469.5788669981685 L 117 470.059627401831 L 118 470.5378573393822 L 119 471.01353903016866 L 120 471.486654788281 L 121 471.95718702321165 L 122 472.4251182405088 L 123 472.89043104242677 L 124 473.3531081285729 L 125 473.8131322965508 L 126 474.27048644260003 L 127 474.72515356223187 L 128 475.1771167508615 L 129 475.62635920443677 L 130 476.07286422006274 L 131 476.5166151966228 L 132 476.95759563539593 L 133 477.39578914067 L 134 477.8311794203514 L 135 478.2637502865711 L 136 478.69348565628593 L 137 479.12036955187693 L 138 479.5443861017435 L 139 479.9655195408931 L 140 480.38375421152784 L 141 480.7990745636264 L 142 481.211465155522 L 143 481.620910654477 L 144 482.0273958372526 L 145 482.43090559067497 L 146 482.8314249121971 L 147 483.2289389104568 L 148 483.62343280583 L 149 484.01489193098064 L 150 484.4033017314056 L 151 484.7886477659763 L 152 485.1709157074752 L 153 485.5500913431288 L 154 485.926160575136 L 155 486.299109421192 L 156 486.66892401500854 L 157 487.03559060682915 L 158 487.3990955639407 L 159 487.7594253711798 L 160 488.1165666314358 L 161 488.4705060661485 L 162 488.8212305158021 L 163 489.1687269404143 L 164 489.5129824200212 L 165 489.85398415515783 L 166 490.1917194673337 L 167 490.52617579950436 L 168 490.8573407165385 L 169 491.1852019056797 L 170 491.509747177005 L 171 491.8309644638774 L 172 492.14884182339495 L 173 492.46336743683463 L 174 492.7745296100918 L 175 493.0823167741149 L 176 493.3867174853357 L 177 493.68772042609487 L 178 493.98531440506247 L 179 494.2794883576544 L 180 494.5702313464433 L 181 494.85753256156585 L 182 495.14138132112413 L 183 495.421767071583 L 184 495.69867938816265 L 185 495.97210797522564 L 186 496.2420426666605 L 187 496.50847342625894 L 188 496.7713903480894 L 189 497.0307836568655 L 190 497.28664370830893 L 191 497.53896098950855 L 192 497.7877261192739 L 193 498.03292984848395 L 194 498.27456306043103 L 195 498.51261677115974 L 196 498.7470821298012 L 197 498.9779504189016 L 198 499.2052130547471 L 199 499.42886158768204 L 200 499.6488877024241 L 201 499.8652832183725 L 202 500.0780400899129 L 203 500.28715040671625 L 204 500.4926063940327 L 205 500.69440041298094 L 206 500.89252496083236 L 207 501.0869726712894 L 208 501.2777363147601 L 209 501.4648087986265 L 210 501.6481831675084 L 211 501.8278526035222 L 212 502.00381042653396 L 213 502.17605009440814 L 214 502.3445652032508 L 215 502.50934948764734 L 216 502.670396820896 L 217 502.82770121523515 L 218 502.98125682206637 L 219 503.13105793217136 L 220 503.2770989759248 L 221 503.4193745235009 L 222 503.5578792850757 L 223 503.69260811102356 L 224 503.8235559921086 L 225 503.95071805967086 L 226 504.07408958580766 L 227 504.1936659835489 L 228 504.3094428070282 L 229 504.4214157516475 L 230 504.52958065423775 L 231 504.63393349321325 L 232 504.73447038872143 L 233 504.831187602787 L 234 504.92408153945087 L 235 505.01314874490396 L 236 505.0983859076156 L 237 505.1797898584566 L 238 505.25735757081713 L 239 505.33108616071917 L 240 505.40097288692385 L 241 505.4670151510332 L 242 505.52921049758703 L 243 505.587556614154 L 244 505.6420513314175 L 245 505.6926926232568 L 246 505.73947860682165 L 247 505.78240754260304 L 248 505.8214778344973 L 249 505.85668802986567 L 250 505.8880368195884 L 251 505.9155230381133 L 252 505.93914566349895 L 253 505.95890381745306 L 254 505.9747967653648 L 255 505.9868239163321 L 256 505.9949848231841 L 257 505.999279182497 L 258 505.99970683460595 L 259 505.99626776361083 L 260 505.9889620973768 L 261 505.9777901075295 L 262 505.96275220944494 L 263 505.94384896223426 L 264 505.92108106872274 L 265 505.89444937542373 L 266 505.8639548725071 L 267 505.8295986937627 L 268 505.79138211655777 L 269 505.7493065617898 L 270 505.7033735938337 L 271 505.65358492048324 L 272 505.5999423928881 L 273 505.54244800548474 L 274 505.4811038959221 L 275 505.4159123449825 L 276 505.3468757764965 L 277 505.27399675725314 L 278 505.19727799690406 L 279 505.1167223478632 L 280 505.0323328052003 L 281 504.94411250653013 L 282 504.85206473189504 L 283 504.75619290364386 L 284 504.656500586304 L 285 504.5529914864492 L 286 504.4456694525618 L 287 504.3345384748894 L 288 504.2196026852969 L 289 504.1008663571122 L 290 503.97833390496805 L 291 503.8520098846376 L 292 503.72189899286485 L 293 503.5880060671903 L 294 503.4503360857709 L 295 503.30889416719526 L 296 503.1636855702928 L 297 503.01471569393874 L 298 502.8619900768532 L 299 502.7055143973951 L 300 502.54529447335136 L 301 502.3813362617203 L 302 502.2136458584903 L 303 502.0422294984131 L 304 501.86709355477205 L 305 501.6882445391452 L 306 501.50568910116294 L 307 501.3194340282611 L 308 501.1294862454284 L 309 500.9358528149488 L 310 500.73854093613954 L 311 500.53755794508277 L 312 500.33291131435305 L 313 500.1246086527398 L 314 499.91265770496403 L 315 499.69706635139045 L 316 499.4778426077346 L 317 499.2549946247649 L 318 499.02853068799925 L 319 498.79845921739735 L 320 498.56478876704745 L 321 498.3275280248484 L 322 498.0866858121865 L 323 497.84227108360767 L 324 497.5942929264844 L 325 497.342760560678 L 326 497.0876833381957 L 327 496.829070742843 L 328 496.5669323898709 L 329 496.3012780256188 L 330 496.0321175271516 L 331 495.759460901893 L 332 495.48331828725304 L 333 495.20369995025123 L 334 494.9206162871351 L 335 494.6340778229932 L 336 494.34409521136433 L 337 494.05067923384104 L 338 493.75384079966886 L 339 493.45359094534075 L 340 493.1499408341867 L 341 492.84290175595874 L 342 492.53248512641113 L 343 492.218702486876 L 344 491.9015655038341 L 345 491.5810859684812 L 346 491.2572757962895 L 347 490.93014702656495 L 348 490.5997118219991 L 349 490.26598246821743 L 350 489.9289713733222 L 351 489.5886910674314 L 352 489.2451542022125 L 353 488.89837355041254 L 354 488.5483620053827 L 355 488.1951325805995 L 356 487.83869840918044 L 357 487.479072743396 L 358 487.1162689541768 L 359 486.75030053061676 L 360 486.38118107947093 L 361 486.0089243246504 L 362 485.6335441067114 L 363 485.25505438234086 L 364 484.87346922383773 L 365 484.4888028185897 L 366 484.1010694685454 L 367 483.71028358968306 L 368 483.31645971147424 L 369 482.9196124763438 L 370 482.5197566391254 L 371 482.11690706651274 L 372 481.7110787365074 L 373 481.30228673786115 L 374 480.89054626951565 L 375 480.475872640037 L 376 480.0582812670464 L 377 479.6377876766476 L 378 479.21440750284864 L 379 478.7881564869815 L 380 478.3590504771164 L 381 477.9271054274725 L 382 477.49233739782494 L 383 477.0547625529076 L 384 476.6143971618121 L 385 476.17125759738303 L 386 475.7253603356091 L 387 475.27672195501043 L 388 474.8253591360225 L 389 474.3712886603756 L 390 473.91452741047135 L 391 473.4550923687543 L 392 472.9930006170814 L 393 472.528269336086 L 394 472.06091580453983 L 395 471.59095739871003 L 396 471.1184115917135 L 397 470.6432959528669 L 398 470.1656281470337 L 399 469.68542593396717 L 400 469.2027071676504 L 401 468.717489795632 L 402 468.22979185835925 L 403 467.73963148850703 L 404 467.2470269103041 L 405 466.7519964388548 L 406 466.2545584794588 L 407 465.75473152692643 L 408 465.2525341648911 L 409 464.74798506511826 L 410 464.2411029868115 L 411 463.73190677591464 L 412 463.22041536441145 L 413 462.70664776962144 L 414 462.19062309349295 L 415 461.6723605218929 L 416 461.1518793238936 L 417 460.629198851056 L 418 460.1043385367105 L 419 459.5773178952342 L 420 459.04815652132555 L 421 458.5168740892757 L 422 457.98349035223697 L 423 457.4480251414886 L 424 456.9104983656991 L 425 456.3709300101865 L 426 455.82934013617484 L 427 455.28574888004863 L 428 454.7401764526039 L 429 454.192643138297 L 430 453.6431692944903 L 431 453.0917753506953 L 432 452.53848180781296 L 433 451.9833092373719 L 434 451.4262782807629 L 435 450.867409648472 L 436 450.30672411931016 L 437 449.74424253964094 L 438 449.1799858226051 L 439 448.6139749473434 L 440 448.0462309582164 L 441 447.4767749640222 L 442 446.90562813721107 L 443 446.33281171309915 L 444 445.7583469890781 L 445 445.1822553238238 L 446 444.6045581365019 L 447 444.0252769059717 L 448 443.4444331699871 L 449 442.86204852439676 L 450 442.27814462233994 L 451 441.6927431734425 L 452 441.1058659430091 L 453 440.51753475121416 L 454 439.92777147229066 L 455 439.33659803371665 L 456 438.7440364154003 L 457 438.1501086488622 L 458 437.55483681641687 L 459 436.95824305035103 L 460 436.3603495321014 L 461 435.76117849142935 L 462 435.160752205595 L 463 434.55909299852834 L 464 433.9562232399998 L 465 433.3521653447882 L 466 432.7469417718474 L 467 432.1405750234713 L 468 431.5330876444573 L 469 430.9245022212679 L 470 430.3148413811912 L 471 429.70412779149916 L 472 429.0923841586054 L 473 428.4796332272205 L 474 427.86589777950667 L 475 427.25120063423043 L 476 426.6355646459145 L 477 426.01901270398764 L 478 425.4015677319343 L 479 424.78325268644153 L 480 424.16409055654606 L 481 423.54410436277914 L 482 422.9233171563111 L 483 422.30175201809374 L 484 421.67943205800265 L 485 421.0563804139777 L 486 420.432620251163 L 487 419.8081747610453 L 488 419.1830671605921 L 489 418.557320691388 L 490 417.9309586187712 L 491 417.3040042309677 L 492 416.6764808382262 L 493 416.0484117719509 L 494 415.4198203838342 L 495 414.79073004498866 L 496 414.16116414507763 L 497 413.5311460914462 L 498 412.90069930825035 L 499 412.2698472355865 L 500 411.63861332861944 L 501 411.007021056711 L 502 410.3750939025468 L 503 409.7428553612636 L 504 409.1103289395754 L 505 408.4775381548999 L 506 407.8445065344835 L 507 407.2112576145272 L 508 406.57781493931105 L 509 405.94420206031907 L 510 405.31044253536334 L 511 404.6765599277084 L 512 404.0425778051949 L 513 403.40851973936367 L 514 402.7744093045788 L 515 402.14027007715174 L 516 401.50612563446424 L 517 400.8719995540922 L 518 400.23791541292866 L 519 399.6038967863073 L 520 398.9699672471261 L 521 398.33615036497065 L 522 397.70246970523795 L 523 397.0689488282603 L 524 396.43561128842924 L 525 395.8024806333197 L 526 395.16958040281474 L 527 394.5369341282302 L 528 393.9045653314396 L 529 393.27249752400013 L 530 392.6407542062779 L 531 392.00935886657453 L 532 391.3783349802538 L 533 390.7477060088687 L 534 390.11749539928945 L 535 389.48772658283116 L 536 388.8584229743835 L 537 388.22960797153905 L 538 387.60130495372454 L 539 386.97353728133066 L 540 386.34632829484406 L 541 385.7197013139793 L 542 385.0936796368118 L 543 384.46828653891197 L 544 383.84354527247933 L 545 383.2194790654783 L 546 382.5961111207745 L 547 381.973464615272 L 548 381.3515626990518 L 549 380.73042849451076 L 550 380.1100850955024 L 551 379.4905555664777 L 552 378.8718629416281 L 553 378.25403022402855 L 554 377.6370803847828 L 555 377.02103636216884 L 556 376.40592106078657 L 557 375.7917573507055 L 558 375.1785680666152 L 559 374.56637600697576 L 560 373.9552039331705 L 561 373.34507456865924 L 562 372.73601059813404 L 563 372.1280346666754 L 564 371.52116937891014 L 565 370.91543729817147 L 566 370.3108609456597 L 567 369.7074627996051 L 568 369.1052652944319 L 569 368.5042908199244 L 570 367.9045617203946 L 571 367.3061002938511 L 572 366.70892879117037 L 573 366.1130694152692 L 574 365.51854432027955 L 575 364.9253756107244 L 576 364.3335853406963 L 577 363.74319551303716 L 578 363.15422807852025 L 579 362.5667049350341 L 580 361.98064792676837 L 581 361.3960788434015 L 582 360.8130194192906 L 583 360.2314913326637 L 584 359.6515162048134 L 585 359.073115599293 L 586 358.4963110211148 L 587 357.92112391595083 L 588 357.347575669335 L 589 356.77568760586854 L 590 356.2054809884264 L 591 355.63697701736754 L 592 355.0701968297461 L 593 354.5051614985259 L 594 353.9418920317965 L 595 353.3804093719926 L 596 352.820734395115 L 597 352.2628879099548 L 598 351.7068906573194 L 599 351.15276330926156 L 600 350.6005264683106 L 601 350.0502006667067 L 602 349.50180636563726 L 603 348.95536395447624 L 604 348.410893750026 L 605 347.8684159957622 L 606 347.32795086108064 L 607 346.7895184405479 L 608 346.2531387531538 L 609 345.71883174156744 L 610 345.18661727139533 L 611 344.65651513044327 L 612 344.1285450279802 L 613 343.60272659400556 L 614 343.07907937851957 L 615 342.55762285079624 L 616 342.03837639865947 L 617 341.52135932776224 L 618 341.00659086086887 L 619 340.4940901371403 L 620 339.98387621142246 L 621 339.47596805353777 L 622 338.97038454757995 L 623 338.46714449121185 L 624 337.9662665949665 L 625 337.4677694815515 L 626 336.9716716851567 L 627 336.47799165076503 L 628 335.98674773346653 L 629 335.4979581977762 L 630 335.0116412169549 L 631 334.52781487233335 L 632 334.0464971526402 L 633 333.5677059533332 L 634 333.09145907593347 L 635 332.61777422736407 L 636 332.14666901929155 L 637 331.6781609674709 L 638 331.21226749109456 L 639 330.74900591214475 L 640 330.2883934547493 L 641 329.8304472445415 L 642 329.37518430802305 L 643 328.92262157193124 L 644 328.4727758626095 L 645 328.025663905382 L 646 327.58130232393137 L 647 327.1397076396811 L 648 326.70089627118097 L 649 326.2648845334968 L 650 325.83168863760375 L 651 325.40132468978345 L 652 324.97380869102557 L 653 324.5491565364324 L 654 324.12738401462826 L 655 323.7085068071723 L 656 323.2925404879755 L 657 322.87950052272157 L 658 322.46940226829213 L 659 322.0622609721954 L 660 321.65809177199975 L 661 321.2569096947703 L 662 320.8587296565108 L 663 320.4635664616086 L 664 320.07143480228456 L 665 319.6823492580466 L 666 319.29632429514766 L 667 318.91337426604764 L 668 318.5335134088805 L 669 318.15675584692383 L 670 317.78311558807457 L 671 317.4126065243279 L 672 317.04524243126065 L 673 316.68103696751933 L 674 316.32000367431203 L 675 315.9621559749053 L 676 315.60750717412475 L 677 315.2560704578606 L 678 314.9078588925771 L 679 314.5628854248273 L 680 314.2211628807712 L 681 313.88270396569897 L 682 313.54752126355856 L 683 313.21562723648805 L 684 312.8870342243521 L 685 312.56175444428305 L 686 312.23979999022697 L 687 311.92118283249374 L 688 311.6059148173124 L 689 311.29400766639 L 690 310.98547297647644 L 691 310.68032221893304 L 692 310.37856673930617 L 693 310.0802177569051 L 694 309.7852863643851 L 695 309.49378352733515 L 696 309.20572008387006 L 697 308.9211067442273 L 698 308.63995409036926 L 699 308.3622725755894 L 700 308.08807252412385 L 701 307.8173641307675 L 702 307.55015746049475 L 703 307.2864624480857 L 704 307.02628889775633 L 705 306.7696464827943 L 706 306.51654474519927 L 707 306.2669930953278 L 708 306.0210008115438 L 709 305.77857703987365 L 710 305.5397307936657 L 711 305.3044709532556 L 712 305.0728062656358 L 713 304.84474534413073 L 714 304.6202966680761 L 715 304.3994685825039 L 716 304.1822692978321 L 717 303.9687068895593 L 718 303.75878929796465 L 719 303.55252432781253 L 720 303.3499196480621 L 721 303.15098279158286 L 722 302.9557211548738 L 723 302.7641419977889 L 724 302.57625244326704 L 725 302.3920594770671 L 726 302.2115699475084 L 727 302.0347905652159 L 728 301.86172790287094 L 729 301.69238839496654 L 730 301.52677833756843 L 731 301.36490388808085 L 732 301.20677106501756 L 733 301.0523857477783 L 734 300.9017536764299 L 735 300.75488045149314 L 736 300.61177153373416 L 737 300.4724322439619 L 738 300.3368677628299 L 739 300.2050831306438 L 740 300.077083247174 L 741 299.95287287147335 L 742 299.8324566217004 L 743 299.7158389749475 L 744 299.60302426707443 L 745 299.4940166925473 L 746 299.3888203042824 L 747 299.2874390134955 L 748 299.1898765895567 L 749 299.0961366598501 L 750 299.00622270963896 L 751 298.92013808193593 L 752 298.83788597737913 L 753 298.75946945411283 L 754 298.68489142767396 L 755 298.61415467088364 L 756 298.54726181374394 L 757 298.4842153433403 L 758 298.425017603749 L 759 298.36967079594996 L 760 298.31817697774494 L 761 298.27053806368104 L 762 298.2267558249795 L 763 298.1868318894699 L 764 298.1507677415294 L 765 298.11856472202805 L 766 298.0902240282783 L 767 298.0657467139911 L 768 298.0451336892362 L 769 298.02838572040866 L 770 298.01550343020017 L 771 298.0064872975761 L 772 298.0013376577574 L 773 298.00005470220844 L 774 298.0026384786296 L 775 298.0090888909558 L 776 298.0194056993598 L 777 298.0335885202613 L 778 298.05163682634105 L 779 298.07354994656066 L 780 298.0993270661874 L 781 298.12896722682444 L 782 298.16246932644657 L 783 298.1998321194413 L 784 298.2410542166549 L 785 298.28613408544425 L 786 298.3350700497338 L 787 298.38786029007775 L 788 298.44450284372795 L 789 298.5049956047065 L 790 298.5693363238845 L 791 298.6375226090653 L 792 298.7095519250737 L 793 298.78542159384995 L 794 298.86512879454955 L 795 298.9486705636481 L 796 299.03604379505134 L 797 299.12724524021075 L 798 299.2222715082444 L 799 299.32111906606275 L 800 299.42378423850033 L 801 299.5302632084522 L 802 299.6405520170159 L 803 299.75464656363874 L 804 299.8725426062701 L 805 299.9942357615192 L 806 300.11972150481813 L 807 300.2489951705901 L 808 300.3820519524228 L 809 300.5188869032471 L 810 300.6594949355212 L 811 300.8038708214195 L 812 300.95200919302704 L 813 301.10390454253934 L 814 301.2595512224668 L 815 301.4189434458449 L 816 301.58207528644925 L 817 301.7489406790162 L 818 301.9195334194678 L 819 302.09384716514313 L 820 302.2718754350336 L 821 302.45361161002415 L 822 302.6390489331394 L 823 302.8281805097946 L 824 303.02099930805235 L 825 303.2174981588837 L 826 303.4176697564349 L 827 303.62150665829915 L 828 303.82900128579286 L 829 304.0401459242378 L 830 304.254932723248 L 831 304.4733536970213 L 832 304.69540072463644 L 833 304.92106555035514 L 834 305.15033978392864 L 835 305.3832149009103 L 836 305.61968224297163 L 837 305.85973301822514 L 838 306.10335830155077 L 839 306.35054903492755 L 840 306.6012960277708 L 841 306.85558995727354 L 842 307.1134213687532 L 843 307.3747806760033 L 844 307.63965816164944 L 845 307.90804397751106 L 846 308.1799281449675 L 847 308.4553005553288 L 848 308.73415097021154 L 849 309.0164690219198 L 850 309.3022442138304 L 851 309.5914659207833 L 852 309.88412338947643 L 853 310.18020573886565 L 854 310.4797019605694 L 855 310.78260091927785 L 856 311.08889135316684 L 857 311.3985618743169 L 858 311.71160096913627 L 859 312.0279969987893 L 860 312.347738199629 L 861 312.67081268363444 L 862 312.9972084388528 L 863 313.326913329846 L 864 313.6599150981418 L 865 313.99620136268953 L 866 314.33575962032063 L 867 314.6785772462134 L 868 315.0246414943624 L 869 315.3739394980521 L 870 315.7264582703358 L 871 316.0821847045181 L 872 316.4411055746423 L 873 316.803207535982 L 874 317.1684771255376 L 875 317.53690076253656 L 876 317.9084647489385 L 877 318.28315526994425 L 878 318.66095839450986 L 879 319.04186007586435 L 880 319.42584615203185 L 881 319.81290234635827 L 882 320.2030142680423 L 883 320.59616741267007 L 884 320.9923471627549 L 885 321.3915387882801 L 886 321.7937274472474 L 887 322.19889818622835 L 888 322.6070359409203 L 889 323.0181255367064 L 890 323.43215168922035 L 891 323.8490990049139 L 892 324.26895198162987 L 893 324.69169500917786 L 894 325.1173123699153 L 895 325.5457882393313 L 896 325.9771066866355 L 897 326.41125167534983 L 898 326.8482070639052 L 899 327.2879566062414 L 900 327.7304839524113 L 901 328.17577264918845 L 902 328.6238061406792 L 903 329.0745677689381 L 904 329.528040774587 L 905 329.9842082974386 L 906 330.4430533771228 L 907 330.9045589537179 L 908 331.3687078683844 L 909 331.8354828640031 L 910 332.30486658581685 L 911 332.77684158207563 L 912 333.2513903046855 L 913 333.7284951098613 L 914 334.2081382587818 L 915 334.69030191825027 L 916 335.1749681613569 L 917 335.66211896814565 L 918 336.1517362262837 L 919 336.6438017317356 L 920 337.13829718943964 L 921 337.635204213988 L 922 338.1345043303107 L 923 338.63617897436205 L 924 339.14020949381137 L 925 339.64657714873607 L 926 340.15526311231844 L 927 340.66624847154594 L 928 341.17951422791407 L 929 341.695041298133 L 930 342.2128105148367 L 931 342.732802627296 L 932 343.2549983021342 L 933 343.7793781240458 L 934 344.30592259651837 L 935 344.8346121425575 L 936 345.36542710541465 L 937 345.89834774931825 L 938 346.4333542602067 L 939 346.97042674646605 L 940 347.5095452396689 L 941 348.05068969531715 L 942 348.5938399935869 L 943 349.1389759400771 L 944 349.6860772665598 L 945 350.235123631734 L 946 350.78609462198193 L 947 351.3389697521279 L 948 351.8937284662002 L 949 352.4503501381951 L 950 353.0088140728441 L 951 353.5690995063825 L 952 354.1311856073227 L 953 354.6950514772278 L 954 355.26067615148884 L 955 355.82803860010404 L 956 356.3971177284614 L 957 356.9678923781222 L 958 357.5403413276082 L 959 358.1144432931902 L 960 358.6901769296799 L 961 359.26752083122324 L 962 359.84645353209623 L 963 360.42695350750296 L 964 361.00899917437624 L 965 361.5925688921798 L 966 362.1776409637131 L 967 362.7641936359175 L 968 363.35220510068575 L 969 363.9416534956724 L 970 364.53251690510695 L 971 365.12477336060795 L 972 365.71840084200085 L 973 366.3133772781359 L 974 366.9096805477091 L 975 367.5072884800845 L 976 368.1061788561189 L 977 368.70632940898724 L 978 369.3077178250114 L 979 369.91032174448895 L 980 370.51411876252496 L 981 371.1190864298651 L 982 371.7252022537301 L 983 372.33244369865184 L 984 372.9407881873117 L 985 373.5502131013797 L 986 374.16069578235545 L 987 374.7722135324108 L 988 375.3847436152332 L 989 375.9982632568719 L 990 376.6127496465839 L 991 377.2281799376826 L 992 377.84453124838683 L 993 378.4617806626718 L 994 379.07990523112124 L 995 379.69888197178057 L 996 380.31868787101104 L 997 380.9392998843459 L 998 381.5606949373471 L 999 382.1828499264627 L 1000 382.80574171988644 L 1001 383.4293471584176 L 1002 384.0536430563221 L 1003 384.6786062021943 L 1004 385.30421335982027 L 1005 385.93044126904164 L 1006 386.5572666466205 L 1007 387.18466618710494 L 1008 387.81261656369537 L 1009 388.44109442911235 L 1010 389.0700764164642 L 1011 389.69953914011603 L 1012 390.3294591965589 L 1013 390.9598131652803 L 1014 391.5905776096348 L 1015 392.22172907771557 L 1016 392.8532441032258 L 1017 393.4850992063519 L 1018 394.1172708946361 L 1019 394.74973566384995 L 1020 395.38246999886803 L 1021 396.0154503745426 L 1022 396.6486532565781 L 1023 397.28205510240616 L 1024 397.91563236206076 L 1025 398.5493614790541 L 1026 399.1832188912523 L 1027 399.8171810317514 L 1028 400.4512243297537 L 1029 401.08532521144394 L 1030 401.719460100866 L 1031 402.3536054207992 L 1032 402.9877375936354 L 1033 403.6218330422548 L 1034 404.25586819090324 L 1035 404.8898194660686 L 1036 405.5236632973572 L 1037 406.1573761183698 L 1038 406.7909343675786 L 1039 407.4243144892024 L 1040 408.0574929340832 L 1041 408.690446160561 L 1042 409.3231506353496 L 1043 409.95558283441153 L 1044 410.58771924383245 L 1045 411.2195363606955 L 1046 411.8510106939552 L 1047 412.48211876531076 L 1048 413.11283711007934 L 1049 413.74314227806764 L 1050 414.3730108344448 L 1051 415.0024193606131 L 1052 415.63134445507876 L 1053 416.259762734322 L 1054 416.88765083366667 L 1055 417.5149854081487 L 1056 418.1417431333841 L 1057 418.7679007064362 L 1058 419.39343484668217 L 1059 420.0183222966785 L 1060 420.64253982302563 L 1061 421.2660642172318 L 1062 421.8888722965761 L 1063 422.5109409049703 L 1064 423.13224691381987 L 1065 423.75276722288356 L 1066 424.3724787611328 L 1067 424.9913584876092 L 1068 425.60938339228113 L 1069 426.2265304968995 L 1070 426.84277685585175 L 1071 427.4580995570153 L 1072 428.0724757226093 L 1073 428.68588251004525 L 1074 429.2982971127761 L 1075 429.9096967611444 L 1076 430.520058723229 L 1077 431.12936030569 L 1078 431.73757885461237 L 1079 432.34469175634865 L 1080 432.95067643835944 L 1081 433.5555103700527 L 1082 434.1591710636212 L 1083 434.7616360748792 L 1084 435.3628830040965 L 1085 435.96288949683134 L 1086 436.56163324476137 L 1087 437.1590919865135 L 1088 437.7552435084912 L 1089 438.35006564570085 L 1090 438.943536282575 L 1091 439.53563335379556 L 1092 440.1263348451138 L 1093 440.7156187941686 L 1094 441.3034632913034 L 1095 441.88984648038064 L 1096 442.47474655959445 L 1097 443.05814178228115 L 1098 443.64001045772767 L 1099 444.22033095197844 L 1100 444.7990816886392 L 1101 445.37624114967986 L 1102 445.95178787623365 L 1103 446.525700469396 L 1104 447.0979575910193 L 1105 447.66853796450687 L 1106 448.23742037560334 L 1107 448.80458367318425 L 1108 449.37000677004175 L 1109 449.93366864366897 L 1110 450.49554833704167 L 1111 451.055624959397 L 1112 451.6138776870108 L 1113 452.1702857639715 L 1114 452.724828502952 L 1115 453.27748528597834 L 1116 453.828235565197 L 1117 454.3770588636386 L 1118 454.9239347759788 L 1119 455.46884296929767 L 1120 456.0117631838351 L 1121 456.5526752337445 L 1122 457.091559007843 L 1123 457.62839447035924 L 1124 458.1631616616785 L 1125 458.6958406990846 L 1126 459.22641177749927 L 1127 459.7548551702182 L 1128 460.28115122964505 L 1129 460.80528038802134 L 1130 461.32722315815454 L 1131 461.846960134142 L 1132 462.36447199209306 L 1133 462.87973949084716 L 1134 463.39274347268935 L 1135 463.90346486406236 L 1136 464.41188467627626 L 1137 464.9179840062138 L 1138 465.421744037034 L 1139 465.9231460388708 L 1140 466.42217136953036 L 1141 466.9188014751838 L 1142 467.4130178910568 L 1143 467.9048022421165 L 1144 468.3941362437545 L 1145 468.8810017024666 L 1146 469.36538051652985 L 1147 469.8472546766743 L 1148 470.3266062667541 L 1149 470.80341746441235 L 1150 471.27767054174467 L 1151 471.7493478659578 L 1152 472.2184319000252 L 1153 472.68490520333944 L 1154 473.14875043236015 L 1155 473.6099503412594 L 1156 474.06848778256233 L 1157 474.52434570778524 L 1158 474.97750716806905 L 1159 475.42795531480976 L 1160 475.87567340028437 L 1161 476.3206447782743 L 1162 476.7628529046839 L 1163 477.2022813381554 L 1164 477.63891374068044 L 1165 478.0727338782075 L 1166 478.5037256212455 L 1167 478.9318729454634 L 1168 479.357159932286 L 1169 479.7795707694859 L 1170 480.1990897517712 L 1171 480.61570128136987 L 1172 481.02938986860886 L 1173 481.44014013249097 L 1174 481.84793680126603 L 1175 482.252764712999 L 1176 482.6546088161336 L 1177 483.05345417005196 L 1178 483.4492859456301 L 1179 483.84208942578937 L 1180 484.2318500060434 L 1181 484.61855319504133 L 1182 485.00218461510656 L 1183 485.3827300027713 L 1184 485.76017520930674 L 1185 486.1345062012492 L 1186 486.50570906092213 L 1187 486.87376998695316 L 1188 487.23867529478747 L 1189 487.6004114171966 L 1190 487.95896490478276 L 1191 488.3143224264791 L 1192 488.6664707700451 L 1193 489.0153968425579 L 1194 489.3610876708991 L 1195 489.7035304022372 L 1196 490.04271230450536 L 1197 490.3786207668747 L 1198 490.71124330022343 L 1199 491.0405675376009 L 1200 491.36658123468777 L 1201 491.68927227025074 L 1202 492.00862864659365 L 1203 492.3246384900035 L 1204 492.63729005119177 L 1205 492.94657170573123 L 1206 493.2524719544883 L 1207 493.5549794240507 L 1208 493.85408286714994 L 1209 494.14977116307955 L 1210 494.4420333181091 L 1211 494.73085846589214 L 1212 495.0162358678709 L 1213 495.29815491367503 L 1214 495.57660512151654 L 1215 495.8515761385792 L 1216 496.1230577414036 L 1217 496.39103983626705 L 1218 496.6555124595593 L 1219 496.9164657781526 L 1220 497.17389008976744 L 1221 497.42777582333315 L 1222 497.678113539344 L 1223 497.9248939302101 L 1224 498.1681078206032 L 1225 498.4077461677981 L 1226 498.64380006200884 L 1227 498.8762607267198 L 1228 499.1051195190122 L 1229 499.3303679298853 L 1230 499.55199758457286 L 1231 499.77000024285445 L 1232 499.9843677993619 L 1233 500.1950922838806 L 1234 500.40216586164587 L 1235 500.6055808336342 L 1236 500.8053296368495 L 1237 501.00140484460434 L 1238 501.1937991667961 L 1239 501.3825054501781 L 1240 501.5675166786252 L 1241 501.74882597339507 L 1242 501.92642659338367 L 1243 502.100311935376 L 1244 502.2704755342917 L 1245 502.43691106342527 L 1246 502.5996123346813 L 1247 502.75857329880455 L 1248 502.91378804560503 L 1249 503.06525080417754 L 1250 503.21295594311636 L 1251 503.3568979707245 L 1252 503.49707153521797 L 1253 503.6334714249248 L 1254 503.7660925684787 L 1255 503.8949300350077 L 1256 504.01997903431743 L 1257 504.14123491706937 L 1258 504.25869317495335 L 1259 504.37234944085554 L 1260 504.4821994890207 L 1261 504.58823923520924 L 1262 504.6904647368491 L 1263 504.7888721931824 L 1264 504.8834579454066 L 1265 504.9742184768108 L 1266 505.0611504129061 L 1267 505.1442505215515 L 1268 505.2235157130737 L 1269 505.2989430403823 L 1270 505.37052969907904 L 1271 505.43827302756233 L 1272 505.5021705071261 L 1273 505.5622197620534 L 1274 505.61841855970493 L 1275 505.67076481060184 L 1276 505.7192565685034 L 1277 505.7638920304795 L 1278 505.8046695369777 L 1279 505.8415875718849 L 1280 505.87464476258344 L 1281 505.9038398800026 L 1282 505.929171838664 L 1283 505.9506396967219 L 1284 505.9682426559986 L 1285 505.9819800620136 L 1286 505.99185140400834 L 1287 505.9978563149649 L 1288 505.99999457162005 L 1289 505.998266094473 L 1290 505.9926709477888 L 1291 505.98320933959576 L 1292 505.9698816216777 L 1293 505.952688289561 L 1294 505.9316299824961 L 1295 505.9067074834336 L 1296 505.8779217189955 L 1297 505.84527375944026 L 1298 505.80876481862356 L 1299 505.7683962539526 L 1300 505.72416956633606 L 1301 505.67608640012827 L 1302 505.6241485430677 L 1303 505.5683579262109 L 1304 505.50871662386055 L 1305 505.4452268534883 L 1306 505.3778909756523 L 1307 505.3067114939096 L 1308 505.23169105472294 L 1309 505.1528324473623 L 1310 505.0701386038013 L 1311 504.98361259860826 L 1312 504.8932576488317 L 1313 504.79907711388074 L 1314 504.70107449540046 L 1315 504.5992534371413 L 1316 504.49361772482393 L 1317 504.3841712859984 L 1318 504.27091818989805 L 1319 504.15386264728824 L 1320 504.0330090103098 L 1321 503.9083617723172 L 1322 503.7799255677116 L 1323 503.6477051717683 L 1324 503.5117055004594 L 1325 503.3719316102711 L 1326 503.2283886980154 L 1327 503.08108210063716 L 1328 502.93001729501543 L 1329 502.7751998977601 L 1330 502.6166356650027 L 1331 502.454330492183 L 1332 502.2882904138289 L 1333 502.1185216033331 L 1334 501.9450303727227 L 1335 501.7678231724251 L 1336 501.5869065910278 L 1337 501.4022873550337 L 1338 501.21397232861085 L 1339 501.02196851333724 L 1340 500.8262830479407 L 1341 500.62692320803296 L 1342 500.42389640583997 L 1343 500.21721018992537 L 1344 500.00687224491065 L 1345 499.79289039118885 L 1346 499.57527258463415 L 1347 499.3540269163058 L 1348 499.12916161214764 L 1349 498.90068503268185 L 1350 498.6686056726986 L 1351 498.43293216093963 L 1352 498.1936732597778 L 1353 497.95083786489135 L 1354 497.704435004933 L 1355 497.4544738411941 L 1356 497.20096366726455 L 1357 496.9439139086866 L 1358 496.68333412260495 L 1359 496.4192339974112 L 1360 496.1516233523835 L 1361 495.8805121373217 L 1362 495.60591043217727 L 1363 495.3278284466786 L 1364 495.0462765199513 L 1365 494.76126512013394 L 1366 494.4728048439887 L 1367 494.1809064165076 L 1368 493.8855806905134 L 1369 493.5868386462564 L 1370 493.28469139100605 L 1371 492.9791501586379 L 1372 492.67022630921616 L 1373 492.35793132857117 L 1374 492.04227682787223 L 1375 491.7232745431964 L 1376 491.4009363350915 L 1377 491.07527418813544 L 1378 490.74630021049074 L 1379 490.41402663345417 L 1380 490.0784658110021 L 1381 489.7396302193311 L 1382 489.39753245639395 L 1383 489.05218524143174 L 1384 488.7036014145003 L 1385 488.35179393599344 L 1386 487.9967758861603 L 1387 487.63856046462 L 1388 487.27716098987 L 1389 486.91259089879156 L 1390 486.54486374614953 L 1391 486.17399320408924 L 1392 485.79999306162733 L 1393 485.42287722413937 L 1394 485.042659712843 L 1395 484.6593546642765 L 1396 484.27297632977314 L 1397 483.8835390749315 L 1398 483.49105737908116 L 1399 483.0955458347442 L 1400 482.69701914709344 L 1401 482.2954921334046 L 1402 481.89097972250613 L 1403 481.483496954224 L 1404 481.07305897882236 L 1405 480.6596810564403 L 1406 480.2433785565248 L 1407 479.82416695725874 L 1408 479.4020618449859 L 1409 478.9770789136312 L 1410 478.54923396411726 L 1411 478.11854290377687 L 1412 477.6850217457617 L 1413 477.24868660844675 L 1414 476.8095537148311 L 1415 476.36763939193486 L 1416 475.9229600701923 L 1417 475.4755322828402 L 1418 475.0253726653042 L 1419 474.57249795457926 L 1420 474.1169249886083 L 1421 473.6586707056553 L 1422 473.19775214367644 L 1423 472.7341864396857 L 1424 472.2679908291186 L 1425 471.7991826451906 L 1426 471.3277793182532 L 1427 470.8537983751455 L 1428 470.37725743854276 L 1429 469.89817422630114 L 1430 469.4165665507991 L 1431 468.9324523182746 L 1432 468.4458495281604 L 1433 467.9567762724135 L 1434 467.4652507348435 L 1435 466.971291190436 L 1436 466.47491600467345 L 1437 465.976143632852 L 1438 465.47499261939566 L 1439 464.9714815971666 L 1440 464.46562928677224 L 1441 463.9574544958699 L 1442 463.44697611846664 L 1443 462.9342131342172 L 1444 462.41918460771836 L 1445 461.9019096878002 L 1446 461.3824076068138 L 1447 460.8606976799165 L 1448 460.33679930435346 L 1449 459.8107319587372 L 1450 459.2825152023223 L 1451 458.75216867427883 L 1452 458.21971209296214 L 1453 457.6851652551797 L 1454 457.1485480354548 L 1455 456.60988038528797 L 1456 456.06918233241487 L 1457 455.5264739800621 L 1458 454.9817755061993 L 1459 454.43510716278894 L 1460 453.8864892750337 L 1461 453.33594224062045 L 1462 452.78348652896216 L 1463 452.2291426804365 L 1464 451.6729313056223 L 1465 451.11487308453366 L 1466 450.5549887658502 L 1467 449.99329916614636 L 1468 449.429825169117 L 1469 448.8645877248013 L 1470 448.29760784880347 L 1471 447.7289066215116 L 1472 447.1585051873139 L 1473 446.5864247538127 L 1474 446.0126865910354 L 1475 445.4373120306442 L 1476 444.8603224651427 L 1477 444.2817393470806 L 1478 443.7015841882562 L 1479 443.1198785589164 L 1480 442.5366440869549 L 1481 441.95190245710756 L 1482 441.3656754101474 L 1483 440.77798474207475 L 1484 440.1888523033077 L 1485 439.59829999786984 L 1486 439.0063497825753 L 1487 438.4130236662128 L 1488 437.8183437087272 L 1489 437.2223320203993 L 1490 436.6250107610242 L 1491 436.0264021390866 L 1492 435.4265284109357 L 1493 434.82541187995747 L 1494 434.2230748957455 L 1495 433.61953985326994 L 1496 433.0148291920449 L 1497 432.4089653952941 L 1498 431.8019709891154 L 1499 431.19386854164236 L 1500 430.58468066220587 L 1501 429.9744300004933 L 1502 429.36313924570646 L 1503 428.7508311257179 L 1504 428.13752840622607 L 1505 427.52325388990835 L 1506 426.90803041557433 L 1507 426.29188085731556 L 1508 425.67482812365546 L 1509 425.05689515669786 L 1510 424.43810493127364 L 1511 423.8184804540867 L 1512 423.1980447628585 L 1513 422.57682092547145 L 1514 421.9548320391118 L 1515 421.33210122941 L 1516 420.70865164958127 L 1517 420.0845064795651 L 1518 419.4596889251628 L 1519 418.8342222171753 L 1520 418.20812961053895 L 1521 417.5814343834612 L 1522 416.9541598365548 L 1523 416.32632929197223 L 1524 415.69796609253746 L 1525 415.0690936008789 L 1526 414.43973519856047 L 1527 413.8099142852123 L 1528 413.17965427766075 L 1529 412.5489786090577 L 1530 411.9179107280094 L 1531 411.28647409770497 L 1532 410.654692195043 L 1533 410.02258850975994 L 1534 409.3901865435558 L 1535 408.75750980922083 L 1536 408.1245818297612 L 1537 407.4914261375245 L 1538 406.85806627332437 L 1539 406.2245257855662" stroke-linecap="round" stroke-linejoin="round" stroke-miterlimit="10" stroke-width="16"/></g></svg>